<svg xmlns="http://www.w3.org/2000/svg" xmlns:xlink="http://www.w3.org/1999/xlink" id="body_1" preserveAspectRatio="xMinYMin meet" viewBox="0 0 793 1121"><defs><clipPath id="1"><path id="" clip-rule="evenodd" transform="matrix(1 0 0 1 0 0)" d="M0 841L0 -0.8897705L0 -0.8897705L595.2755 -0.8897705L595.2755 -0.8897705L595.2755 841L595.2755 841L0 841z" /></clipPath><clipPath id="2"><path id="" clip-rule="evenodd" transform="matrix(1 0 0 1 0 0)" d="M51 151L131 151L131 151L131 56L131 56L51 56z" /></clipPath><clipPath id="3"><path id="" clip-rule="evenodd" transform="matrix(1 0 0 1 0 0)" d="M130 96L545 96L545 96L545 56L545 56L130 56z" /></clipPath><clipPath id="4"><path id="" clip-rule="evenodd" transform="matrix(1 0 0 1 0 0)" d="M130 113L545 113L545 113L545 95L545 95L130 95z" /></clipPath><clipPath id="5"><path id="" clip-rule="evenodd" transform="matrix(1 0 0 1 0 0)" d="M130 129L545 129L545 129L545 112L545 112L130 112z" /></clipPath><clipPath id="6"><path id="" clip-rule="evenodd" transform="matrix(1 0 0 1 0 0)" d="M130 151L545 151L545 151L545 128L545 128L130 128z" /></clipPath><clipPath id="7"><path id="" clip-rule="evenodd" transform="matrix(1 0 0 1 0 0)" d="M51 172L170 172L170 172L170 150L170 150L51 150z" /></clipPath><clipPath id="8"><path id="" clip-rule="evenodd" transform="matrix(1 0 0 1 0 0)" d="M169 172L545 172L545 172L545 150L545 150L169 150z" /></clipPath><clipPath id="9"><path id="" clip-rule="evenodd" transform="matrix(1 0 0 1 0 0)" d="M51 191L170 191L170 191L170 173L170 173L51 173z" /></clipPath><clipPath id="10"><path id="" clip-rule="evenodd" transform="matrix(1 0 0 1 0 0)" d="M169 191L285 191L285 191L285 173L285 173L169 173z" /></clipPath><clipPath id="11"><path id="" clip-rule="evenodd" transform="matrix(1 0 0 1 0 0)" d="M169 191L285 191L285 191L285 173L285 173L169 173z" /></clipPath><clipPath id="12"><path id="" clip-rule="evenodd" transform="matrix(1 0 0 1 0 0)" d="M284 191L420 191L420 191L420 173L420 173L284 173z" /></clipPath><clipPath id="13"><path id="" clip-rule="evenodd" transform="matrix(1 0 0 1 0 0)" d="M419 191L545 191L545 191L545 173L545 173L419 173z" /></clipPath><clipPath id="14"><path id="" clip-rule="evenodd" transform="matrix(1 0 0 1 0 0)" d="M51 220L170 220L170 220L170 202L170 202L51 202z" /></clipPath><clipPath id="15"><path id="" clip-rule="evenodd" transform="matrix(1 0 0 1 0 0)" d="M169 220L285 220L285 220L285 202L285 202L169 202z" /></clipPath><clipPath id="16"><path id="" clip-rule="evenodd" transform="matrix(1 0 0 1 0 0)" d="M284 220L420 220L420 220L420 202L420 202L284 202z" /></clipPath><clipPath id="17"><path id="" clip-rule="evenodd" transform="matrix(1 0 0 1 0 0)" d="M284 220L420 220L420 220L420 202L420 202L284 202z" /></clipPath><clipPath id="18"><path id="" clip-rule="evenodd" transform="matrix(1 0 0 1 0 0)" d="M419 220L545 220L545 220L545 202L545 202L419 202z" /></clipPath><clipPath id="19"><path id="" clip-rule="evenodd" transform="matrix(1 0 0 1 0 0)" d="M51 241L170 241L170 241L170 219L170 219L51 219z" /></clipPath><clipPath id="20"><path id="" clip-rule="evenodd" transform="matrix(1 0 0 1 0 0)" d="M169 241L545 241L545 241L545 219L545 219L169 219z" /></clipPath><clipPath id="21"><path id="" clip-rule="evenodd" transform="matrix(1 0 0 1 0 0)" d="M51 275L170 275L170 275L170 242L170 242L51 242z" /></clipPath><clipPath id="22"><path id="" clip-rule="evenodd" transform="matrix(1 0 0 1 0 0)" d="M51 275L170 275L170 275L170 242L170 242L51 242z" /></clipPath><clipPath id="23"><path id="" clip-rule="evenodd" transform="matrix(1 0 0 1 0 0)" d="M169 275L293 275L293 275L293 242L293 242L169 242z" /></clipPath><clipPath id="24"><path id="" clip-rule="evenodd" transform="matrix(1 0 0 1 0 0)" d="M169 275L293 275L293 275L293 242L293 242L169 242z" /></clipPath><clipPath id="25"><path id="" clip-rule="evenodd" transform="matrix(1 0 0 1 0 0)" d="M169 275L293 275L293 275L293 242L293 242L169 242z" /></clipPath><clipPath id="26"><path id="" clip-rule="evenodd" transform="matrix(1 0 0 1 0 0)" d="M292 275L545 275L545 275L545 242L545 242L292 242z" /></clipPath><clipPath id="27"><path id="" clip-rule="evenodd" transform="matrix(1 0 0 1 0 0)" d="M51 292L170 292L170 292L170 274L170 274L51 274z" /></clipPath><clipPath id="28"><path id="" clip-rule="evenodd" transform="matrix(1 0 0 1 0 0)" d="M51 292L170 292L170 292L170 274L170 274L51 274z" /></clipPath><clipPath id="29"><path id="" clip-rule="evenodd" transform="matrix(1 0 0 1 0 0)" d="M169 292L545 292L545 292L545 274L545 274L169 274z" /></clipPath><clipPath id="30"><path id="" clip-rule="evenodd" transform="matrix(1 0 0 1 0 0)" d="M51 309L170 309L170 309L170 291L170 291L51 291z" /></clipPath><clipPath id="31"><path id="" clip-rule="evenodd" transform="matrix(1 0 0 1 0 0)" d="M51 309L170 309L170 309L170 291L170 291L51 291z" /></clipPath><clipPath id="32"><path id="" clip-rule="evenodd" transform="matrix(1 0 0 1 0 0)" d="M169 309L545 309L545 309L545 291L545 291L169 291z" /></clipPath><clipPath id="33"><path id="" clip-rule="evenodd" transform="matrix(1 0 0 1 0 0)" d="M51 330L170 330L170 330L170 308L170 308L51 308z" /></clipPath><clipPath id="34"><path id="" clip-rule="evenodd" transform="matrix(1 0 0 1 0 0)" d="M169 330L545 330L545 330L545 308L545 308L169 308z" /></clipPath><clipPath id="35"><path id="" clip-rule="evenodd" transform="matrix(1 0 0 1 0 0)" d="M51 349L170 349L170 349L170 331L170 331L51 331z" /></clipPath><clipPath id="36"><path id="" clip-rule="evenodd" transform="matrix(1 0 0 1 0 0)" d="M169 349L403 349L403 349L403 331L403 331L169 331z" /></clipPath><clipPath id="37"><path id="" clip-rule="evenodd" transform="matrix(1 0 0 1 0 0)" d="M402 349L545 349L545 349L545 331L545 331L402 331z" /></clipPath><clipPath id="38"><path id="" clip-rule="evenodd" transform="matrix(1 0 0 1 0 0)" d="M402 349L545 349L545 349L545 331L545 331L402 331z" /></clipPath><clipPath id="39"><path id="" clip-rule="evenodd" transform="matrix(1 0 0 1 0 0)" d="M51 366L170 366L170 366L170 348L170 348L51 348z" /></clipPath><clipPath id="40"><path id="" clip-rule="evenodd" transform="matrix(1 0 0 1 0 0)" d="M51 366L170 366L170 366L170 348L170 348L51 348z" /></clipPath><clipPath id="41"><path id="" clip-rule="evenodd" transform="matrix(1 0 0 1 0 0)" d="M169 366L545 366L545 366L545 348L545 348L169 348z" /></clipPath><clipPath id="42"><path id="" clip-rule="evenodd" transform="matrix(1 0 0 1 0 0)" d="M51 383L170 383L170 383L170 365L170 365L51 365z" /></clipPath><clipPath id="43"><path id="" clip-rule="evenodd" transform="matrix(1 0 0 1 0 0)" d="M51 383L170 383L170 383L170 365L170 365L51 365z" /></clipPath><clipPath id="44"><path id="" clip-rule="evenodd" transform="matrix(1 0 0 1 0 0)" d="M169 383L545 383L545 383L545 365L545 365L169 365z" /></clipPath><clipPath id="45"><path id="" clip-rule="evenodd" transform="matrix(1 0 0 1 0 0)" d="M51 401L170 401L170 401L170 382L170 382L51 382z" /></clipPath><clipPath id="46"><path id="" clip-rule="evenodd" transform="matrix(1 0 0 1 0 0)" d="M51 401L170 401L170 401L170 382L170 382L51 382z" /></clipPath><clipPath id="47"><path id="" clip-rule="evenodd" transform="matrix(1 0 0 1 0 0)" d="M169 401L545 401L545 401L545 382L545 382L169 382z" /></clipPath><clipPath id="48"><path id="" clip-rule="evenodd" transform="matrix(1 0 0 1 0 0)" d="M51 422L170 422L170 422L170 400L170 400L51 400z" /></clipPath><clipPath id="49"><path id="" clip-rule="evenodd" transform="matrix(1 0 0 1 0 0)" d="M169 422L545 422L545 422L545 400L545 400L169 400z" /></clipPath><clipPath id="50"><path id="" clip-rule="evenodd" transform="matrix(1 0 0 1 0 0)" d="M51 442L170 442L170 442L170 424L170 424L51 424z" /></clipPath><clipPath id="51"><path id="" clip-rule="evenodd" transform="matrix(1 0 0 1 0 0)" d="M169 442L404 442L404 442L404 424L404 424L169 424z" /></clipPath><clipPath id="52"><path id="" clip-rule="evenodd" transform="matrix(1 0 0 1 0 0)" d="M403 442L545 442L545 442L545 424L545 424L403 424z" /></clipPath><clipPath id="53"><path id="" clip-rule="evenodd" transform="matrix(1 0 0 1 0 0)" d="M403 442L545 442L545 442L545 424L545 424L403 424z" /></clipPath><clipPath id="54"><path id="" clip-rule="evenodd" transform="matrix(1 0 0 1 0 0)" d="M51 459L170 459L170 459L170 441L170 441L51 441z" /></clipPath><clipPath id="55"><path id="" clip-rule="evenodd" transform="matrix(1 0 0 1 0 0)" d="M51 459L170 459L170 459L170 441L170 441L51 441z" /></clipPath><clipPath id="56"><path id="" clip-rule="evenodd" transform="matrix(1 0 0 1 0 0)" d="M169 459L545 459L545 459L545 441L545 441L169 441z" /></clipPath><clipPath id="57"><path id="" clip-rule="evenodd" transform="matrix(1 0 0 1 0 0)" d="M51 498L170 498L170 498L170 458L170 458L51 458z" /></clipPath><clipPath id="58"><path id="" clip-rule="evenodd" transform="matrix(1 0 0 1 0 0)" d="M51 498L170 498L170 498L170 458L170 458L51 458z" /></clipPath><clipPath id="59"><path id="" clip-rule="evenodd" transform="matrix(1 0 0 1 0 0)" d="M169 498L545 498L545 498L545 458L545 458L169 458z" /></clipPath><clipPath id="60"><path id="" clip-rule="evenodd" transform="matrix(1 0 0 1 0 0)" d="M51 517L170 517L170 517L170 497L170 497L51 497z" /></clipPath><clipPath id="61"><path id="" clip-rule="evenodd" transform="matrix(1 0 0 1 0 0)" d="M51 517L170 517L170 517L170 497L170 497L51 497z" /></clipPath><clipPath id="62"><path id="" clip-rule="evenodd" transform="matrix(1 0 0 1 0 0)" d="M169 517L545 517L545 517L545 497L545 497L169 497z" /></clipPath><clipPath id="63"><path id="" clip-rule="evenodd" transform="matrix(1 0 0 1 0 0)" d="M51 534L170 534L170 534L170 516L170 516L51 516z" /></clipPath><clipPath id="64"><path id="" clip-rule="evenodd" transform="matrix(1 0 0 1 0 0)" d="M169 534L463 534L463 534L463 516L463 516L169 516z" /></clipPath><clipPath id="65"><path id="" clip-rule="evenodd" transform="matrix(1 0 0 1 0 0)" d="M169 534L463 534L463 534L463 516L463 516L169 516z" /></clipPath><clipPath id="66"><path id="" clip-rule="evenodd" transform="matrix(1 0 0 1 0 0)" d="M462 534L545 534L545 534L545 516L545 516L462 516z" /></clipPath><clipPath id="67"><path id="" clip-rule="evenodd" transform="matrix(1 0 0 1 0 0)" d="M462 534L545 534L545 534L545 516L545 516L462 516z" /></clipPath><clipPath id="68"><path id="" clip-rule="evenodd" transform="matrix(1 0 0 1 0 0)" d="M51 560L170 560L170 560L170 533L170 533L51 533z" /></clipPath><clipPath id="69"><path id="" clip-rule="evenodd" transform="matrix(1 0 0 1 0 0)" d="M51 560L170 560L170 560L170 533L170 533L51 533z" /></clipPath><clipPath id="70"><path id="" clip-rule="evenodd" transform="matrix(1 0 0 1 0 0)" d="M169 560L545 560L545 560L545 533L545 533L169 533z" /></clipPath><clipPath id="71"><path id="" clip-rule="evenodd" transform="matrix(1 0 0 1 0 0)" d="M51 589L170 589L170 589L170 559L170 559L51 559z" /></clipPath><clipPath id="72"><path id="" clip-rule="evenodd" transform="matrix(1 0 0 1 0 0)" d="M51 589L170 589L170 589L170 559L170 559L51 559z" /></clipPath><clipPath id="73"><path id="" clip-rule="evenodd" transform="matrix(1 0 0 1 0 0)" d="M169 589L545 589L545 589L545 559L545 559L169 559z" /></clipPath><clipPath id="74"><path id="" clip-rule="evenodd" transform="matrix(1 0 0 1 0 0)" d="M51 606L170 606L170 606L170 588L170 588L51 588z" /></clipPath><clipPath id="75"><path id="" clip-rule="evenodd" transform="matrix(1 0 0 1 0 0)" d="M51 606L170 606L170 606L170 588L170 588L51 588z" /></clipPath><clipPath id="76"><path id="" clip-rule="evenodd" transform="matrix(1 0 0 1 0 0)" d="M169 606L545 606L545 606L545 588L545 588L169 588z" /></clipPath><clipPath id="77"><path id="" clip-rule="evenodd" transform="matrix(1 0 0 1 0 0)" d="M51 627L170 627L170 627L170 605L170 605L51 605z" /></clipPath><clipPath id="78"><path id="" clip-rule="evenodd" transform="matrix(1 0 0 1 0 0)" d="M169 627L545 627L545 627L545 605L545 605L169 605z" /></clipPath><clipPath id="79"><path id="" clip-rule="evenodd" transform="matrix(1 0 0 1 0 0)" d="M51 648L170 648L170 648L170 628L170 628L51 628z" /></clipPath><clipPath id="80"><path id="" clip-rule="evenodd" transform="matrix(1 0 0 1 0 0)" d="M51 648L170 648L170 648L170 628L170 628L51 628z" /></clipPath><clipPath id="81"><path id="" clip-rule="evenodd" transform="matrix(1 0 0 1 0 0)" d="M169 648L545 648L545 648L545 628L545 628L169 628z" /></clipPath><clipPath id="82"><path id="" clip-rule="evenodd" transform="matrix(1 0 0 1 0 0)" d="M51 695L170 695L170 695L170 647L170 647L51 647z" /></clipPath><clipPath id="83"><path id="" clip-rule="evenodd" transform="matrix(1 0 0 1 0 0)" d="M169 695L545 695L545 695L545 647L545 647L169 647z" /></clipPath><clipPath id="84"><path id="" clip-rule="evenodd" transform="matrix(1 0 0 1 0 0)" d="M51 714L170 714L170 714L170 694L170 694L51 694z" /></clipPath><clipPath id="85"><path id="" clip-rule="evenodd" transform="matrix(1 0 0 1 0 0)" d="M51 714L170 714L170 714L170 694L170 694L51 694z" /></clipPath><clipPath id="86"><path id="" clip-rule="evenodd" transform="matrix(1 0 0 1 0 0)" d="M169 714L545 714L545 714L545 694L545 694L169 694z" /></clipPath><clipPath id="87"><path id="" clip-rule="evenodd" transform="matrix(1 0 0 1 0 0)" d="M51 746L170 746L170 746L170 713L170 713L51 713z" /></clipPath><clipPath id="88"><path id="" clip-rule="evenodd" transform="matrix(1 0 0 1 0 0)" d="M169 746L545 746L545 746L545 713L545 713L169 713z" /></clipPath><clipPath id="89"><path id="" clip-rule="evenodd" transform="matrix(1 0 0 1 0 0)" d="M51 767L170 767L170 767L170 745L170 745L51 745z" /></clipPath><clipPath id="90"><path id="" clip-rule="evenodd" transform="matrix(1 0 0 1 0 0)" d="M169 767L545 767L545 767L545 745L545 745L169 745z" /></clipPath><clipPath id="91"><path id="" clip-rule="evenodd" transform="matrix(1 0 0 1 0 0)" d="M51 790L545 790L545 790L545 768L545 768L51 768z" /></clipPath><clipPath id="92"><path id="" clip-rule="evenodd" transform="matrix(1 0 0 1 0 0)" d="M55.4957 56.0058L126.3457 56.0058L126.3457 56.0058L126.3457 150.3558L126.3457 150.3558L55.4957 150.3558z" /></clipPath><clipPath id="93"><path id="" clip-rule="evenodd" transform="matrix(1 0 0 1 0 0)" d="M55.2057 150.3159L126.4857 150.3159L126.4857 150.3159L126.4857 55.99591L126.4857 55.99591L55.2057 55.99591z" /></clipPath></defs><g transform="matrix(1.333333 0 0 1.333333 0 0)"><g clip-path="url(#1)"><g clip-path="url(#2)"></g><g clip-path="url(#3)"></g><g clip-path="url(#4)"></g><g clip-path="url(#5)"></g><g clip-path="url(#6)"></g><path id="52" transform="matrix(1 0 0 -1 0 841)" d="M51.3657 690.6841L169.6857 690.6841L169.6857 670.0441L51.3657 670.0441z" stroke="none" fill="#FFFFFF" fill-rule="nonzero" /><g clip-path="url(#7)"><path id="53" transform="matrix(1 0 0 -1 0 841)" d="M55.4457 690.6841L165.3657 690.6841L165.3657 670.0441L55.4457 670.0441z" stroke="none" fill="#FFFFFF" fill-rule="nonzero" /></g><path id="58" transform="matrix(1 0 0 -1 0 841)" d="M169.6857 690.6841L544.5657 690.6841L544.5657 670.0441L169.6857 670.0441z" stroke="none" fill="#FFFFFF" fill-rule="nonzero" /><g clip-path="url(#8)"><path id="59" transform="matrix(1 0 0 -1 0 841)" d="M172.5657 690.6841L540.2457 690.6841L540.2457 670.0441L172.5657 670.0441z" stroke="none" fill="#FFFFFF" fill-rule="nonzero" /></g><path id="60" transform="matrix(1 0 0 -1 0 841)" d="M50.6457 669.8041L169.6857 669.8041L169.6857 667.6441L50.6457 667.6441z" stroke="none" fill="#3C84C5" fill-rule="nonzero" /><path id="61" transform="matrix(1 0 0 -1 0 841)" d="M168.9657 669.8041L171.1257 669.8041L171.1257 667.6441L168.9657 667.6441z" stroke="none" fill="#CCCCCC" fill-rule="nonzero" /><path id="62" transform="matrix(1 0 0 -1 0 841)" d="M171.1257 669.8041L544.5657 669.8041L544.5657 667.6441L171.1257 667.6441z" stroke="none" fill="#CCCCCC" fill-rule="nonzero" /><g clip-path="url(#9)"></g><g clip-path="url(#10)"></g><g clip-path="url(#11)"></g><g clip-path="url(#12)"></g><g clip-path="url(#13)"></g><g clip-path="url(#14)"></g><g clip-path="url(#15)"></g><g clip-path="url(#16)"></g><g clip-path="url(#17)"></g><g clip-path="url(#18)"></g><path id="139" transform="matrix(1 0 0 -1 0 841)" d="M51.3657 621.5641L169.6857 621.5641L169.6857 600.9241L51.3657 600.9241z" stroke="none" fill="#FFFFFF" fill-rule="nonzero" /><g clip-path="url(#19)"><path id="140" transform="matrix(1 0 0 -1 0 841)" d="M55.4457 621.5641L165.3657 621.5641L165.3657 600.9241L55.4457 600.9241z" stroke="none" fill="#FFFFFF" fill-rule="nonzero" /></g><path id="146" transform="matrix(1 0 0 -1 0 841)" d="M169.6857 621.5641L544.5657 621.5641L544.5657 600.9241L169.6857 600.9241z" stroke="none" fill="#FFFFFF" fill-rule="nonzero" /><g clip-path="url(#20)"><path id="147" transform="matrix(1 0 0 -1 0 841)" d="M172.5657 621.5641L540.2457 621.5641L540.2457 600.9241L172.5657 600.9241z" stroke="none" fill="#FFFFFF" fill-rule="nonzero" /></g><path id="148" transform="matrix(1 0 0 -1 0 841)" d="M50.6457 600.6841L169.6857 600.6841L169.6857 598.5241L50.6457 598.5241z" stroke="none" fill="#3C84C5" fill-rule="nonzero" /><path id="149" transform="matrix(1 0 0 -1 0 841)" d="M168.9657 600.6841L171.1257 600.6841L171.1257 598.5241L168.9657 598.5241z" stroke="none" fill="#CCCCCC" fill-rule="nonzero" /><path id="150" transform="matrix(1 0 0 -1 0 841)" d="M171.1257 600.6841L544.5657 600.6841L544.5657 598.5241L171.1257 598.5241z" stroke="none" fill="#CCCCCC" fill-rule="nonzero" /><g clip-path="url(#21)"></g><g clip-path="url(#22)"></g><g clip-path="url(#23)"></g><g clip-path="url(#24)"></g><g clip-path="url(#25)"></g><g clip-path="url(#26)"></g><g clip-path="url(#27)"></g><g clip-path="url(#28)"></g><g clip-path="url(#29)"></g><g clip-path="url(#30)"></g><g clip-path="url(#31)"></g><g clip-path="url(#32)"></g><path id="266" transform="matrix(1 0 0 -1 0 841)" d="M51.3657 532.2841L169.6857 532.2841L169.6857 511.6441L51.3657 511.6441z" stroke="none" fill="#FFFFFF" fill-rule="nonzero" /><g clip-path="url(#33)"><path id="267" transform="matrix(1 0 0 -1 0 841)" d="M55.4457 532.2841L165.3657 532.2841L165.3657 511.6441L55.4457 511.6441z" stroke="none" fill="#FFFFFF" fill-rule="nonzero" /></g><path id="272" transform="matrix(1 0 0 -1 0 841)" d="M169.6857 532.2841L544.5657 532.2841L544.5657 511.6441L169.6857 511.6441z" stroke="none" fill="#FFFFFF" fill-rule="nonzero" /><g clip-path="url(#34)"><path id="273" transform="matrix(1 0 0 -1 0 841)" d="M173.7657 532.2841L540.2457 532.2841L540.2457 511.6441L173.7657 511.6441z" stroke="none" fill="#FFFFFF" fill-rule="nonzero" /></g><path id="274" transform="matrix(1 0 0 -1 0 841)" d="M50.6457 511.6441L169.6857 511.6441L169.6857 509.4841L50.6457 509.4841z" stroke="none" fill="#3C84C5" fill-rule="nonzero" /><path id="275" transform="matrix(1 0 0 -1 0 841)" d="M168.9657 511.6441L171.1257 511.6441L171.1257 509.4841L168.9657 509.4841z" stroke="none" fill="#CCCCCC" fill-rule="nonzero" /><path id="276" transform="matrix(1 0 0 -1 0 841)" d="M171.1257 511.6441L544.5657 511.6441L544.5657 509.4841L171.1257 509.4841z" stroke="none" fill="#CCCCCC" fill-rule="nonzero" /><g clip-path="url(#35)"></g><g clip-path="url(#36)"></g><g clip-path="url(#37)"></g><g clip-path="url(#38)"></g><g clip-path="url(#39)"></g><g clip-path="url(#40)"></g><g clip-path="url(#41)"></g><g clip-path="url(#42)"></g><g clip-path="url(#43)"></g><g clip-path="url(#44)"></g><g clip-path="url(#45)"></g><g clip-path="url(#46)"></g><g clip-path="url(#47)"></g><path id="403" transform="matrix(1 0 0 -1 0 841)" d="M51.3657 440.1241L169.6857 440.1241L169.6857 419.4841L51.3657 419.4841z" stroke="none" fill="#FFFFFF" fill-rule="nonzero" /><g clip-path="url(#48)"><path id="404" transform="matrix(1 0 0 -1 0 841)" d="M55.4457 440.1241L165.3657 440.1241L165.3657 419.4841L55.4457 419.4841z" stroke="none" fill="#FFFFFF" fill-rule="nonzero" /></g><path id="409" transform="matrix(1 0 0 -1 0 841)" d="M169.6857 440.1241L544.5657 440.1241L544.5657 419.4841L169.6857 419.4841z" stroke="none" fill="#FFFFFF" fill-rule="nonzero" /><g clip-path="url(#49)"><path id="410" transform="matrix(1 0 0 -1 0 841)" d="M173.7657 440.1241L540.2457 440.1241L540.2457 419.4841L173.7657 419.4841z" stroke="none" fill="#FFFFFF" fill-rule="nonzero" /></g><path id="411" transform="matrix(1 0 0 -1 0 841)" d="M50.6457 419.2441L169.6857 419.2441L169.6857 417.0841L50.6457 417.0841z" stroke="none" fill="#3C84C5" fill-rule="nonzero" /><path id="412" transform="matrix(1 0 0 -1 0 841)" d="M168.9657 419.2441L171.1257 419.2441L171.1257 417.0841L168.9657 417.0841z" stroke="none" fill="#CCCCCC" fill-rule="nonzero" /><path id="413" transform="matrix(1 0 0 -1 0 841)" d="M171.1257 419.2441L544.5657 419.2441L544.5657 417.0841L171.1257 417.0841z" stroke="none" fill="#CCCCCC" fill-rule="nonzero" /><g clip-path="url(#50)"></g><g clip-path="url(#51)"></g><g clip-path="url(#52)"></g><g clip-path="url(#53)"></g><g clip-path="url(#54)"></g><g clip-path="url(#55)"></g><g clip-path="url(#56)"></g><g clip-path="url(#57)"></g><g clip-path="url(#58)"></g><g clip-path="url(#59)"></g><g clip-path="url(#60)"></g><g clip-path="url(#61)"></g><g clip-path="url(#62)"></g><g clip-path="url(#63)"></g><g clip-path="url(#64)"></g><g clip-path="url(#65)"></g><g clip-path="url(#66)"></g><g clip-path="url(#67)"></g><g clip-path="url(#68)"></g><g clip-path="url(#69)"></g><g clip-path="url(#70)"></g><g clip-path="url(#71)"></g><g clip-path="url(#72)"></g><g clip-path="url(#73)"></g><g clip-path="url(#74)"></g><g clip-path="url(#75)"></g><g clip-path="url(#76)"></g><path id="845" transform="matrix(1 0 0 -1 0 841)" d="M51.3657 235.6441L169.6857 235.6441L169.6857 215.0041L51.3657 215.0041z" stroke="none" fill="#FFFFFF" fill-rule="nonzero" /><g clip-path="url(#77)"><path id="846" transform="matrix(1 0 0 -1 0 841)" d="M55.4457 235.6441L165.3657 235.6441L165.3657 215.0041L55.4457 215.0041z" stroke="none" fill="#FFFFFF" fill-rule="nonzero" /></g><path id="851" transform="matrix(1 0 0 -1 0 841)" d="M169.6857 235.6441L544.5657 235.6441L544.5657 215.0041L169.6857 215.0041z" stroke="none" fill="#FFFFFF" fill-rule="nonzero" /><g clip-path="url(#78)"><path id="852" transform="matrix(1 0 0 -1 0 841)" d="M173.7657 235.6441L540.2457 235.6441L540.2457 215.0041L173.7657 215.0041z" stroke="none" fill="#FFFFFF" fill-rule="nonzero" /></g><path id="853" transform="matrix(1 0 0 -1 0 841)" d="M50.6457 215.0041L169.6857 215.0041L169.6857 212.8441L50.6457 212.8441z" stroke="none" fill="#3C84C5" fill-rule="nonzero" /><path id="854" transform="matrix(1 0 0 -1 0 841)" d="M168.9657 215.0041L171.1257 215.0041L171.1257 212.8441L168.9657 212.8441z" stroke="none" fill="#CCCCCC" fill-rule="nonzero" /><path id="855" transform="matrix(1 0 0 -1 0 841)" d="M171.1257 215.0041L544.5657 215.0041L544.5657 212.8441L171.1257 212.8441z" stroke="none" fill="#CCCCCC" fill-rule="nonzero" /><g clip-path="url(#79)"></g><g clip-path="url(#80)"></g><g clip-path="url(#81)"></g><g clip-path="url(#82)"></g><g clip-path="url(#83)"></g><g clip-path="url(#84)"></g><g clip-path="url(#85)"></g><g clip-path="url(#86)"></g><g clip-path="url(#87)"></g><g clip-path="url(#88)"></g><path id="1088" transform="matrix(1 0 0 -1 0 841)" d="M51.3657 95.24412L169.6857 95.24412L169.6857 74.36412L51.3657 74.36412z" stroke="none" fill="#FFFFFF" fill-rule="nonzero" /><g clip-path="url(#89)"><path id="1089" transform="matrix(1 0 0 -1 0 841)" d="M55.4457 95.24412L165.3657 95.24412L165.3657 74.36412L55.4457 74.36412z" stroke="none" fill="#FFFFFF" fill-rule="nonzero" /></g><path id="1094" transform="matrix(1 0 0 -1 0 841)" d="M169.6857 95.24412L544.5657 95.24412L544.5657 74.36412L169.6857 74.36412z" stroke="none" fill="#FFFFFF" fill-rule="nonzero" /><g clip-path="url(#90)"><path id="1095" transform="matrix(1 0 0 -1 0 841)" d="M173.7657 95.24412L540.2457 95.24412L540.2457 74.36412L173.7657 74.36412z" stroke="none" fill="#FFFFFF" fill-rule="nonzero" /></g><path id="1096" transform="matrix(1 0 0 -1 0 841)" d="M50.6457 74.36412L169.6857 74.36412L169.6857 72.20412L50.6457 72.20412z" stroke="none" fill="#3C84C5" fill-rule="nonzero" /><path id="1097" transform="matrix(1 0 0 -1 0 841)" d="M168.9657 74.36412L171.1257 74.36412L171.1257 72.20412L168.9657 72.20412z" stroke="none" fill="#CCCCCC" fill-rule="nonzero" /><path id="1098" transform="matrix(1 0 0 -1 0 841)" d="M171.1257 74.36412L544.5657 74.36412L544.5657 72.20412L171.1257 72.20412z" stroke="none" fill="#CCCCCC" fill-rule="nonzero" /><g clip-path="url(#91)"></g><g clip-path="url(#92)"><g clip-path="url(#93)"><g transform="matrix(0.07585653 0 0 0.07584405 55.4957 56.0058)"><g transform="matrix(1 0 0 1 0 0)"><image x="0" y="0" xlink:href="img_01.png" width="934" height="1244" /></g></g></g></g></g></g></svg>